# xmcd CD database file
#
# Track frame offsets:
#	183
#	30980
#	56838
#	86510
#	109063
#	136860
#	164003
#	168653
#	202790
#	208983
#	228695
#	240265
#	281780
#	285590
#	311668
#	334275
#
# Disc length: 4525 seconds
#
# Revision: 1
# Processed by: cddbd v1.5.1PL0 Copyright (c) Steve Scherf et al.
# Submitted via: CDex 1.51
#
DISCID=eb11ab10
DTITLE=Charlie Parker - Bird In Boston: Charlie Parker Live At The Hi-Hat 1953-54 Vol 2
DYEAR=1991
DGENRE=Jazz
TTITLE0=Cool Blues
TTITLE1=Out Of Nowhere
TTITLE2=My Funny Valentine
TTITLE3=Ornithology
TTITLE4=Cool Blues
TTITLE5=My Little Suede Shoes
TTITLE6=Bird Talks With Symphony Sid
TTITLE7=Ornithology
TTITLE8=Syhphony Sid Introduces the Hi-Hat All Stars
TTITLE9=Out of Nowhere
TTITLE10=Jumpin' With Symphony Sid
TTITLE11=Now's The Time
TTITLE12=Symphony Sid and Parker Introduce the Hi-Hat All Stars
TTITLE13=Out Of Nowhere
TTITLE14=My Little Suede Shoes
TTITLE15=Jumpin' With Symphony Sid
EXTD=YEAR: 1991
EXTT0=
EXTT1=
EXTT2=
EXTT3=
EXTT4=
EXTT5=
EXTT6=
EXTT7=
EXTT8=
EXTT9=
EXTT10=
EXTT11=
EXTT12=
EXTT13=
EXTT14=
EXTT15=
PLAYORDER=
